<mxfile host="app.diagrams.net" modified="2020-11-06T18:23:10.618Z" agent="5.0 (Windows)" etag="pS72OEC5qSMwQpCQFEYZ" version="13.7.1" type="github" pages="2">
  <diagram id="OgtsXj5TOIKroZt_IxXi" name="Page-1">
    <mxGraphModel dx="1230" dy="749" grid="1" gridSize="10" guides="1" tooltips="1" connect="1" arrows="1" fold="1" page="1" pageScale="1" pageWidth="1169" pageHeight="827" math="0" shadow="0">
      <root>
        <mxCell id="0" />
        <mxCell id="1" parent="0" />
        <mxCell id="3XOm1lpKHdIzSLZXdGcb-2" value="&lt;div&gt;Customer_reciption&lt;/div&gt;&lt;div&gt;&lt;br&gt;&lt;/div&gt;" style="shape=umlActor;verticalLabelPosition=bottom;verticalAlign=top;html=1;outlineConnect=0;" vertex="1" parent="1">
          <mxGeometry x="200" y="120" width="80" height="160" as="geometry" />
        </mxCell>
        <mxCell id="3XOm1lpKHdIzSLZXdGcb-4" value="Packeges" style="whiteSpace=wrap;html=1;aspect=fixed;" vertex="1" parent="1">
          <mxGeometry x="620" y="680" width="80" height="80" as="geometry" />
        </mxCell>
        <mxCell id="3XOm1lpKHdIzSLZXdGcb-5" value="Mail" style="whiteSpace=wrap;html=1;aspect=fixed;" vertex="1" parent="1">
          <mxGeometry x="540" y="680" width="80" height="80" as="geometry" />
        </mxCell>
        <mxCell id="3XOm1lpKHdIzSLZXdGcb-7" value="&lt;div&gt;Customer_Sender&lt;/div&gt;&lt;div&gt;&lt;br&gt;&lt;/div&gt;" style="shape=umlActor;verticalLabelPosition=bottom;verticalAlign=top;html=1;outlineConnect=0;" vertex="1" parent="1">
          <mxGeometry x="920" y="120" width="80" height="160" as="geometry" />
        </mxCell>
        <mxCell id="3XOm1lpKHdIzSLZXdGcb-8" value="Offices/CollectionPoints" style="shape=cube;whiteSpace=wrap;html=1;boundedLbl=1;backgroundOutline=1;darkOpacity=0.05;darkOpacity2=0.1;size=10;" vertex="1" parent="1">
          <mxGeometry x="520" y="360" width="200" height="160" as="geometry" />
        </mxCell>
        <mxCell id="3XOm1lpKHdIzSLZXdGcb-9" value="Country" style="ellipse;shape=cloud;whiteSpace=wrap;html=1;" vertex="1" parent="1">
          <mxGeometry x="400" y="350" width="120" height="80" as="geometry" />
        </mxCell>
        <mxCell id="3XOm1lpKHdIzSLZXdGcb-10" value="City" style="ellipse;shape=cloud;whiteSpace=wrap;html=1;" vertex="1" parent="1">
          <mxGeometry x="400" y="430" width="120" height="80" as="geometry" />
        </mxCell>
        <mxCell id="3XOm1lpKHdIzSLZXdGcb-11" value="Postoffice" style="ellipse;shape=cloud;whiteSpace=wrap;html=1;" vertex="1" parent="1">
          <mxGeometry x="720" y="350" width="120" height="80" as="geometry" />
        </mxCell>
        <mxCell id="3XOm1lpKHdIzSLZXdGcb-12" value="Name-adress" style="ellipse;shape=cloud;whiteSpace=wrap;html=1;" vertex="1" parent="1">
          <mxGeometry x="280" y="50" width="120" height="80" as="geometry" />
        </mxCell>
        <mxCell id="3XOm1lpKHdIzSLZXdGcb-13" value="Name-adress" style="ellipse;shape=cloud;whiteSpace=wrap;html=1;" vertex="1" parent="1">
          <mxGeometry x="1000" y="50" width="120" height="80" as="geometry" />
        </mxCell>
        <mxCell id="3XOm1lpKHdIzSLZXdGcb-14" value="order Id" style="ellipse;shape=cloud;whiteSpace=wrap;html=1;" vertex="1" parent="1">
          <mxGeometry x="1000" y="130" width="120" height="80" as="geometry" />
        </mxCell>
        <mxCell id="3XOm1lpKHdIzSLZXdGcb-15" value="Mail By Category" style="rounded=0;whiteSpace=wrap;html=1;" vertex="1" parent="1">
          <mxGeometry x="540" y="620" width="160" height="60" as="geometry" />
        </mxCell>
        <mxCell id="CcgqKXHNlciYXlVE0Xx1-1" value="Staff " style="ellipse;shape=cloud;whiteSpace=wrap;html=1;" vertex="1" parent="1">
          <mxGeometry x="730" y="430" width="120" height="80" as="geometry" />
        </mxCell>
      </root>
    </mxGraphModel>
  </diagram>
  <diagram id="RseL4kLuGjxKAjW_bBjZ" name="Page-2">
    <mxGraphModel dx="703" dy="428" grid="1" gridSize="10" guides="1" tooltips="1" connect="1" arrows="1" fold="1" page="1" pageScale="1" pageWidth="1169" pageHeight="827" math="0" shadow="0">
      <root>
        <mxCell id="POCnKWIFvuwRMPkDXMfg-0" />
        <mxCell id="POCnKWIFvuwRMPkDXMfg-1" parent="POCnKWIFvuwRMPkDXMfg-0" />
        <mxCell id="-mxWESTyoVPwejasDwNa-1" value="&lt;font style=&quot;font-size: 14px&quot;&gt;Offices/Collection Points&lt;/font&gt;" style="rounded=0;whiteSpace=wrap;html=1;fillColor=#3399FF;" vertex="1" parent="POCnKWIFvuwRMPkDXMfg-1">
          <mxGeometry x="160" y="120" width="160" height="80" as="geometry" />
        </mxCell>
        <mxCell id="MQhN_po-ZCP7v8aL-H6F-0" value="Country" style="ellipse;whiteSpace=wrap;html=1;" vertex="1" parent="POCnKWIFvuwRMPkDXMfg-1">
          <mxGeometry x="20" y="60" width="100" height="60" as="geometry" />
        </mxCell>
        <mxCell id="MQhN_po-ZCP7v8aL-H6F-1" value="City" style="ellipse;whiteSpace=wrap;html=1;" vertex="1" parent="POCnKWIFvuwRMPkDXMfg-1">
          <mxGeometry x="20" y="130" width="100" height="60" as="geometry" />
        </mxCell>
        <mxCell id="MQhN_po-ZCP7v8aL-H6F-2" value="post Office" style="ellipse;whiteSpace=wrap;html=1;" vertex="1" parent="POCnKWIFvuwRMPkDXMfg-1">
          <mxGeometry x="20" y="200" width="100" height="60" as="geometry" />
        </mxCell>
        <mxCell id="ZNSAl7kbm_WD0UWIJV_L-0" value="" style="endArrow=none;html=1;exitX=1;exitY=0.5;exitDx=0;exitDy=0;entryX=0;entryY=1;entryDx=0;entryDy=0;" edge="1" parent="POCnKWIFvuwRMPkDXMfg-1" source="MQhN_po-ZCP7v8aL-H6F-2" target="-mxWESTyoVPwejasDwNa-1">
          <mxGeometry width="50" height="50" relative="1" as="geometry">
            <mxPoint x="150" y="290" as="sourcePoint" />
            <mxPoint x="160" y="230" as="targetPoint" />
          </mxGeometry>
        </mxCell>
        <mxCell id="ZNSAl7kbm_WD0UWIJV_L-1" value="" style="endArrow=none;html=1;exitX=1;exitY=0.5;exitDx=0;exitDy=0;entryX=0;entryY=0.5;entryDx=0;entryDy=0;" edge="1" parent="POCnKWIFvuwRMPkDXMfg-1" source="MQhN_po-ZCP7v8aL-H6F-1" target="-mxWESTyoVPwejasDwNa-1">
          <mxGeometry width="50" height="50" relative="1" as="geometry">
            <mxPoint x="150" y="100" as="sourcePoint" />
            <mxPoint x="200" y="50" as="targetPoint" />
          </mxGeometry>
        </mxCell>
        <mxCell id="ZNSAl7kbm_WD0UWIJV_L-2" value="" style="endArrow=none;html=1;exitX=1;exitY=0.5;exitDx=0;exitDy=0;entryX=0;entryY=0;entryDx=0;entryDy=0;" edge="1" parent="POCnKWIFvuwRMPkDXMfg-1" source="MQhN_po-ZCP7v8aL-H6F-0" target="-mxWESTyoVPwejasDwNa-1">
          <mxGeometry width="50" height="50" relative="1" as="geometry">
            <mxPoint x="170" y="80" as="sourcePoint" />
            <mxPoint x="220" y="30" as="targetPoint" />
          </mxGeometry>
        </mxCell>
        <mxCell id="b0_HO22pnN-cbgrxYiU--0" value="Staff" style="ellipse;whiteSpace=wrap;html=1;" vertex="1" parent="POCnKWIFvuwRMPkDXMfg-1">
          <mxGeometry x="100" y="10" width="100" height="60" as="geometry" />
        </mxCell>
        <mxCell id="b0_HO22pnN-cbgrxYiU--1" value="" style="endArrow=none;html=1;entryX=0.5;entryY=1;entryDx=0;entryDy=0;exitX=0.25;exitY=0;exitDx=0;exitDy=0;" edge="1" parent="POCnKWIFvuwRMPkDXMfg-1" source="-mxWESTyoVPwejasDwNa-1" target="b0_HO22pnN-cbgrxYiU--0">
          <mxGeometry width="50" height="50" relative="1" as="geometry">
            <mxPoint x="160" y="120" as="sourcePoint" />
            <mxPoint x="280" y="30" as="targetPoint" />
          </mxGeometry>
        </mxCell>
        <mxCell id="GWSDKWU_pHOqHXixqfwi-0" value="Mail By Category" style="rounded=0;whiteSpace=wrap;html=1;fillColor=#3399FF;" vertex="1" parent="POCnKWIFvuwRMPkDXMfg-1">
          <mxGeometry x="170" y="400" width="140" height="80" as="geometry" />
        </mxCell>
        <mxCell id="hWsjLwJ6B81tHHINbd1f-0" value="Category" style="ellipse;whiteSpace=wrap;html=1;" vertex="1" parent="POCnKWIFvuwRMPkDXMfg-1">
          <mxGeometry x="20" y="410" width="100" height="60" as="geometry" />
        </mxCell>
        <mxCell id="hWsjLwJ6B81tHHINbd1f-2" value="" style="endArrow=none;html=1;exitX=1;exitY=0.5;exitDx=0;exitDy=0;entryX=0;entryY=0.5;entryDx=0;entryDy=0;" edge="1" parent="POCnKWIFvuwRMPkDXMfg-1" source="hWsjLwJ6B81tHHINbd1f-0" target="GWSDKWU_pHOqHXixqfwi-0">
          <mxGeometry width="50" height="50" relative="1" as="geometry">
            <mxPoint x="140" y="340" as="sourcePoint" />
            <mxPoint x="190" y="290" as="targetPoint" />
          </mxGeometry>
        </mxCell>
        <mxCell id="F8nK9LyA7BD3iNiET76z-0" value="has" style="rhombus;whiteSpace=wrap;html=1;fillColor=#3399FF;" vertex="1" parent="POCnKWIFvuwRMPkDXMfg-1">
          <mxGeometry x="200" y="260" width="80" height="80" as="geometry" />
        </mxCell>
        <mxCell id="F8nK9LyA7BD3iNiET76z-1" value="" style="endArrow=ERone;html=1;entryX=0.5;entryY=1;entryDx=0;entryDy=0;endFill=0;exitX=0.5;exitY=0;exitDx=0;exitDy=0;" edge="1" parent="POCnKWIFvuwRMPkDXMfg-1" source="F8nK9LyA7BD3iNiET76z-0" target="-mxWESTyoVPwejasDwNa-1">
          <mxGeometry width="50" height="50" relative="1" as="geometry">
            <mxPoint x="190" y="260" as="sourcePoint" />
            <mxPoint x="240" y="210" as="targetPoint" />
          </mxGeometry>
        </mxCell>
        <mxCell id="F8nK9LyA7BD3iNiET76z-2" value="" style="endArrow=ERmany;html=1;endFill=0;entryX=0.5;entryY=0;entryDx=0;entryDy=0;exitX=0.5;exitY=1;exitDx=0;exitDy=0;" edge="1" parent="POCnKWIFvuwRMPkDXMfg-1" source="F8nK9LyA7BD3iNiET76z-0" target="GWSDKWU_pHOqHXixqfwi-0">
          <mxGeometry width="50" height="50" relative="1" as="geometry">
            <mxPoint x="140" y="360" as="sourcePoint" />
            <mxPoint x="190" y="310" as="targetPoint" />
          </mxGeometry>
        </mxCell>
      </root>
    </mxGraphModel>
  </diagram>
</mxfile>
